# xmcd
#
# Track frame offsets:
# 183
# 50308
# 131060
# 174845
# 231293
#
# Disc length: 3544 seconds
#
#
# Revision: 4
# Processed by: cddbd v1.5.2PL0 Copyright (c) Steve Scherf et al.
# Submitted via: FreeRIP 2.945 
#
DISCID=390dd605
DTITLE=Elgar, Edvard - The Banner of St George op33, Great is the Lord op67, Te Deum and Benedictus op34 - Nothern Sinfonia of England - Elgar, Edvard - The Banner of St George op33, Great is the Lord op67, Te Deum and Benedictus op34 - Nothern Sinfonia of E
DTITLE=ngland
DYEAR=1994
DGENRE=Classical
TTITLE0=Elgar, Edvard - The Banner of St George op33 - 1. Scene I
TTITLE1=Elgar, Edvard - The Banner of St George op33 - Scene II - Epilogue
TTITLE2=Elgar, Edvard - Great is the Lord--Psalm 48 op67
TTITLE3=Elgar, Edvard - Te Deum op34
TTITLE4=Elgar, Edvard - Benedictus op34
EXTD=Elgar, Edvard\nThe Banner of St George op33\nGreat is the Lord op67\nTe Deum and Benedictus op34 \nLondon Symphony Chorus\nNorther Sinfonia of England\nRichard Hickox, conductor\n[3] Stephen Roberts, baritone\n\n(p) (c) EMI Records, Ltd.\nCDC 7 47658 
EXTD=2 YEAR: 1994
EXTT0=
EXTT1=
EXTT2=
EXTT3=
EXTT4=
PLAYORDER=
